<?xml version="1.0" standalone="no"?>
<!DOCTYPE svg PUBLIC "-//W3C//DTD SVG 20010904//EN"
 "http://www.w3.org/TR/2001/REC-SVG-20010904/DTD/svg10.dtd">
<svg version="1.0" xmlns="http://www.w3.org/2000/svg"
 width="700.000000pt" height="700.000000pt" viewBox="0 0 700.000000 700.000000"
 preserveAspectRatio="xMidYMid meet">
<metadata>
Created by potrace 1.11, written by Peter Selinger 2001-2013
</metadata>
<g transform="translate(0.000000,700.000000) scale(0.100000,-0.100000)"
fill="#000000" stroke="none">
<path d="M3477 6374 c-1 -1 -54 -5 -117 -8 -63 -4 -124 -9 -135 -11 -11 -2
-38 -6 -60 -9 -79 -10 -219 -36 -322 -62 -649 -159 -1233 -536 -1656 -1069
-208 -262 -399 -624 -495 -940 -49 -162 -52 -175 -82 -340 -35 -198 -44 -299
-44 -505 0 -135 10 -316 19 -343 2 -7 6 -34 9 -62 33 -288 158 -670 315 -956
341 -626 876 -1085 1556 -1337 188 -70 411 -129 555 -147 30 -4 57 -8 60 -10
3 -2 39 -6 80 -10 41 -3 89 -9 105 -11 41 -8 424 -8 471 0 22 3 68 8 104 11
68 6 181 24 265 41 540 109 1033 355 1429 714 111 101 178 170 295 305 192
222 389 560 498 855 35 95 107 328 118 385 26 132 42 227 49 290 3 28 9 71 12
98 5 41 4 47 -13 48 -10 1 -31 2 -48 4 -16 2 -79 6 -140 10 -60 3 -126 8 -145
9 -19 2 -87 7 -151 11 l-117 7 -7 -74 c-4 -40 -8 -80 -10 -88 -39 -212 -81
-368 -136 -507 -243 -614 -716 -1089 -1329 -1336 -136 -55 -323 -108 -498
-142 -150 -28 -509 -42 -642 -24 -36 5 -82 11 -103 14 -282 36 -606 149 -862
298 -423 248 -759 625 -935 1049 -24 57 -48 117 -56 133 -10 24 -44 132 -49
155 -1 3 -11 46 -22 95 -12 50 -24 107 -27 128 -3 20 -9 54 -12 75 -3 20 -7
48 -10 62 -9 46 -11 364 -3 440 19 181 26 222 58 347 145 565 496 1055 996
1388 120 79 362 201 500 250 99 36 302 93 360 102 17 2 64 10 105 18 146 27
342 35 535 22 129 -9 169 -14 290 -39 55 -11 107 -21 115 -23 75 -14 259 -76
368 -124 50 -21 93 -36 96 -33 4 3 19 33 35 66 90 188 162 340 195 405 20 40
36 75 36 77 0 5 -83 41 -205 89 -140 55 -316 109 -462 140 -135 29 -138 30
-303 51 -80 10 -425 25 -433 18z"/>
<path d="M2350 4920 c-1 -88 -1 -2765 0 -2910 l0 -116 683 2 c375 1 693 4 707
7 14 2 50 7 80 11 116 16 281 69 420 135 69 34 161 85 185 103 6 4 46 35 90
67 282 210 487 517 575 860 62 242 59 512 -7 756 -22 84 -89 246 -131 319 -19
33 -43 76 -54 95 -29 51 -130 179 -190 241 -252 261 -570 426 -928 481 -50 8
-300 12 -752 13 l-678 2 0 -66z m1166 -625 c404 -54 692 -331 742 -715 9 -68
9 -230 0 -290 -43 -286 -194 -498 -439 -617 -148 -72 -287 -99 -504 -98 l-140
0 0 860 c-1 473 3 863 8 866 10 7 267 3 333 -6z"/>
</g>
</svg>
