<svg xmlns="http://www.w3.org/2000/svg" viewBox="0 0 510.74 75.78"><title>logo</title><g id="Layer_2" data-name="Layer 2"><g id="Layer_1-2" data-name="Layer 1"><path d="M99.32,23.07h10.93a14.82,14.82,0,1,1,0,29.64H99.32ZM107,46.19h1.73c4.6,0,8.53-2.52,8.53-8.29,0-5.31-3.5-8.29-8.45-8.29H107Z"/><path d="M135.71,47.42l-2,5.15h-8.18l11.4-29.64h8.41l11.16,29.64h-8.22l-1.93-5.15Zm5.39-15.33H141l-3.18,9.43h6.41Z"/><polygon points="153.91 23.06 163.15 23.06 168.69 31.12 174.23 23.06 183.47 23.06 172.54 38.47 172.54 52.7 164.84 52.7 164.84 38.47 153.91 23.06"/><path d="M188.34,52.44V22.81h11c5.27,0,8.8,2,8.8,7.7,0,2.67-.86,4.83-3.26,6.05v.08c4.24.55,6.05,3.42,6.05,7.55,0,6.21-5.31,8.25-10.73,8.25Zm7.7-18h.86c2,0,4.17-.35,4.17-2.87,0-2.71-2.4-2.87-4.48-2.87H196Zm0,12.1h1c2.28,0,6.13.12,6.13-3.14,0-3.58-3.81-3.22-6.33-3.22H196Z"/><path d="M243.53,52.71h-9.59l-7.27-11.4h-.08v11.4h-7.7V23.07H230.4c5.86,0,10.3,2.79,10.3,9.12,0,4.09-2.28,7.63-6.49,8.37ZM226.59,36.36h.75c2.52,0,5.35-.47,5.35-3.69s-2.83-3.7-5.35-3.7h-.75Z"/><polygon points="257.25 29.6 257.25 34.55 265.94 34.55 265.94 41.08 257.25 41.08 257.25 46.19 266.41 46.19 266.41 52.71 249.54 52.71 249.54 23.07 266.41 23.07 266.41 29.6 257.25 29.6"/><path d="M282.64,47.56l-2,5.15h-8.17l11.4-29.64h8.41l11.16,29.64h-8.21l-1.93-5.15ZM288,32.23h-.08l-3.18,9.43h6.41Z"/><polygon points="326.82 23.07 336.37 23.07 324.58 37.1 337.43 52.71 327.45 52.71 317.51 39.86 317.43 39.86 317.43 52.71 309.72 52.71 309.72 23.07 317.43 23.07 317.43 35.3 317.51 35.3 326.82 23.07"/><path d="M365.34,28.73a11.79,11.79,0,0,0-19.54,9.2,11.66,11.66,0,0,0,19.54,9v4.36a16,16,0,0,1-7.78,2.08A15.34,15.34,0,0,1,342.11,38a15.58,15.58,0,0,1,15.76-15.6,14.3,14.3,0,0,1,7.47,2Z"/><polygon points="391.17 35.02 391.17 23.07 394.86 23.07 394.86 52.71 391.17 52.71 391.17 38.48 377.06 38.48 377.06 52.71 373.36 52.71 373.36 23.07 377.06 23.07 377.06 35.02 391.17 35.02"/><path d="M407.32,23.07V40.56c0,4.83,1.45,9.32,7.15,9.32s7.15-4.48,7.15-9.32V23.07h3.7V41.82c0,6.52-4,11.52-10.85,11.52s-10.85-5-10.85-11.52V23.07Z"/><path d="M452.8,52.71h-4.48l-8.73-12.54h-1.53V52.71h-3.69V23.07h4.48c2.63,0,5.46,0,7.82,1.38a8.2,8.2,0,0,1,3.89,7.08,8.07,8.07,0,0,1-7.11,8.29Zm-14.74-15.6h1.18c3.77,0,7.86-.71,7.86-5.42s-4.4-5.31-8.06-5.31h-1Z"/><path d="M481.22,28.73a11.79,11.79,0,0,0-19.54,9.2,11.66,11.66,0,0,0,19.54,9v4.36a16,16,0,0,1-7.78,2.08A15.34,15.34,0,0,1,458,38a15.58,15.58,0,0,1,15.76-15.6,14.3,14.3,0,0,1,7.47,2Z"/><polygon points="507.04 35.02 507.04 23.07 510.74 23.07 510.74 52.71 507.04 52.71 507.04 38.48 492.93 38.48 492.93 52.71 489.24 52.71 489.24 23.07 492.93 23.07 492.93 35.02 507.04 35.02"/><path d="M47,19.71a19.17,19.17,0,0,0-7.91-1.65H23.2V58.22H39.07a19.28,19.28,0,0,0,8-1.65,21.31,21.31,0,0,0,6.46-4.42,20.31,20.31,0,0,0,4.32-6.42,19.23,19.23,0,0,0,0-15.24,20.37,20.37,0,0,0-4.35-6.39A21.59,21.59,0,0,0,47,19.71m.38,22.93a10,10,0,0,1-2.3,3.54,10.68,10.68,0,0,1-3.69,2.34,13.65,13.65,0,0,1-5,.85H33.93V26.9h2.46a13.52,13.52,0,0,1,4.93.85A10.69,10.69,0,0,1,45,30.1a10.29,10.29,0,0,1,2.33,3.57,12.08,12.08,0,0,1,.82,4.48,12.39,12.39,0,0,1-.79,4.5"/><path d="M69.26,39.4A30.66,30.66,0,0,1,46.7,66.56,31,31,0,0,1,23.4,64,29.14,29.14,0,0,1,12.09,23.5,31.38,31.38,0,0,1,52.62,11.1l3.49-7.24a39.43,39.43,0,0,0-51,15.61A37.18,37.18,0,0,0,19.55,71a38.74,38.74,0,0,0,18.59,4.75A39.79,39.79,0,0,0,48.87,74.3,38.71,38.71,0,0,0,77.28,39.94Z"/></g></g></svg>